<svg width="110" height="80" xmlns="http://www.w3.org/2000/svg">
 <style type="text/css">.st0{fill:#028844;}
	.st1{fill:#E22922;}
	.st2{fill:#0076D6;}
	.st3{fill:#FFD500;}</style>

 <g>
  <title>background</title>
  <rect fill="none" id="canvas_background" height="602" width="802" y="-1" x="-1"/>
 </g>
 <g>
  <title>Layer 1</title>
  <g id="svg_1">
   <g id="svg_2">
    <path id="svg_3" d="m96.4,16c-6.2,-7.4 -15.5,-11.6 -25.4,-11.4l-0.4,0l0.4,-0.2c11,-5.4 24,-4.4 33.9,2.5l0.1,0.1l-0.1,0c-0.4,0.2 -0.7,0.3 -1,0.5c-1,0.5 -2,1.2 -2.9,2c-2,1.7 -3.5,4 -4.3,6.5l-0.1,0.2l-0.2,-0.2z" class="st0"/>
    <path id="svg_4" d="m64.3,33.2c-2.5,-0.7 -5.2,-0.7 -7.8,0c-1.1,0.3 -2.2,0.7 -3.3,1.3c-0.3,0.2 -0.7,0.4 -1,0.6l-0.1,0.1l0,-0.2c-0.2,-12.1 6.2,-23.4 16.9,-29.5l0.4,-0.2l-0.2,0.3c-5.7,8.1 -7.4,18.1 -4.8,27.5l0,0.2l-0.1,-0.1z" class="st1"/>
    <path id="svg_5" d="m80.7,27.2c-2.9,-0.3 -5.8,0.2 -8.5,1.4c-0.4,0.2 -0.8,0.4 -1.2,0.6c-1.8,0.9 -3.3,2.2 -4.7,3.6l-0.1,0.1l0,-0.2c-2.9,-9.2 -1.6,-19.1 3.7,-27.4l0.1,-0.1l11,22l-0.3,0z" class="st2"/>
    <path id="svg_6" d="m70.3,5.1l0.2,0c9.8,0.3 18.8,4.7 24.8,12.3l0.1,0.1l-0.2,0c-2,0.3 -3.8,0.9 -5.6,1.8c-0.4,0.2 -0.8,0.4 -1.2,0.7c-2.5,1.6 -4.5,3.8 -5.9,6.3l-0.1,0.1l-12.1,-21.3z" class="st3"/>
    <path id="svg_7" d="m106.9,6.2c-10,-7.2 -24.2,-8.4 -36.6,-2.1l0,0l-2.3,-3.5c-0.1,-0.1 -0.2,-0.2 -0.4,-0.1s-0.2,0.2 -0.1,0.4l1.6,3.8c-12.2,6.8 -19.1,19.3 -18.7,31.6c0,0.7 0.1,1.3 0.1,2c0.5,-0.6 1.1,-1.1 1.8,-1.5c0.5,-0.4 1.1,-0.7 1.6,-1c0.9,-0.5 1.9,-0.9 3,-1.2c2.6,-0.7 5.3,-0.6 7.8,0.2c0.1,0 0.1,0 0.2,0.1c0.4,0.2 0.9,0.3 1.3,0.5c0.2,-0.3 0.5,-0.6 0.7,-0.9c0.1,-0.1 0.2,-0.2 0.3,-0.3c1.3,-1.5 2.8,-2.7 4.6,-3.7c0.4,-0.2 0.8,-0.4 1.1,-0.6c2.8,-1.2 5.9,-1.6 8.8,-1.1l12.8,24c0.5,0.9 1.2,1.5 2.1,1.9c0.5,0.2 1,0.3 1.6,0.4c0.2,0 0.4,0 0.5,0c0.5,-0.1 1.1,-0.2 1.6,-0.5c2.1,-1.1 2.9,-3.7 1.8,-5.8l-0.7,-1.4c-0.2,-0.5 -0.8,-0.6 -1.3,-0.4c-0.5,0.2 -0.6,0.8 -0.4,1.3l0.7,1.4c0.6,1.2 0.2,2.6 -1,3.3c-0.8,0.4 -1.7,0.4 -2.5,-0.1c0,0 0,0 0,0c0,0 -0.1,-0.1 -0.1,-0.1c-0.4,-0.4 -0.8,-1 -0.8,-1l-12.7,-23.9c1.2,-2.7 3.2,-5 5.8,-6.7c0.4,-0.2 0.7,-0.4 1.1,-0.6c1.8,-0.9 3.7,-1.5 5.6,-1.7c0.1,0 0.3,0 0.4,0c0.4,0 0.8,-0.1 1.2,-0.1c0.1,-0.5 0.2,-0.9 0.3,-1.4c0,-0.1 0,-0.1 0.1,-0.2c0.7,-2.6 2.1,-4.8 4.2,-6.6c0.8,-0.7 1.7,-1.3 2.6,-1.8c0.6,-0.3 1.2,-0.6 1.8,-0.8c0.7,-0.3 1.5,-0.5 2.2,-0.6c-0.6,-0.4 -1.1,-0.8 -1.7,-1.2zm-42.6,26.9c-2.5,-0.7 -5.2,-0.7 -7.8,0c-1.5,0.4 -3,1 -4.3,1.9c-0.2,-11.6 6,-23.1 16.9,-29.4c-5.6,7.9 -7.5,18 -4.8,27.5zm16.4,-6l0,0l0,0c0,0 0,0 0,0l0,0zm-0.2,-0.5l0.3,0.5c-2.9,-0.3 -5.8,0.2 -8.5,1.4c-2.3,1 -4.3,2.5 -5.9,4.3c-3,-9.3 -1.5,-19.3 3.6,-27.3l10.5,21.1zm2.3,2.5l0,0l0,0l0,0zm5.5,-9.1c-2.5,1.6 -4.5,3.8 -5.9,6.3l-0.3,-0.5l-11.6,-20.6c9.5,0.2 18.6,4.6 24.6,12.2c-2.4,0.3 -4.7,1.2 -6.8,2.6zm12.6,-10.5c-2,1.8 -3.5,4 -4.4,6.5c-6.3,-7.6 -15.8,-11.7 -25.5,-11.5c11.3,-5.5 24.3,-4.2 33.8,2.5c-1.4,0.6 -2.7,1.4 -3.9,2.5z"/>
    <path id="svg_8" d="m80.7,27.1l0,0l0,0z"/>
    <path id="svg_9" d="m80.7,27.1l0,0c0,0 0,0 0,0l0,0z"/>
    <path id="svg_10" d="m82.8,29.1l0,0l0,0z"/>
   </g>
   <path id="svg_11" d="m87.5,57.7c-1.7,-0.5 -4,-1.9 -6.4,-3.6c0.5,-0.7 0.9,-1.6 1.2,-2.4c0.8,-1.8 1.1,-2.8 2.8,-2.9l0,-0.8c-0.9,0 -1.9,0.1 -2.9,0.1c-0.9,0 -1.9,0 -2.8,-0.1l0,0.8c0.6,0.1 1.3,0.2 1.9,0.4c0,0.7 -0.4,2 -0.8,2.9c-0.2,0.4 -0.4,0.8 -0.6,1.2c-2.2,-1.8 -4.3,-3.8 -5.7,-5.8c2.1,-1 4.5,-2.1 4.5,-4.6c0,-2.4 -1.7,-3.6 -4.1,-3.6c-2.6,0 -4.8,1.9 -4.8,4.4c0,1.2 0.4,2.5 1,3.8c-2.4,1.2 -4,2.6 -4,5.4c0,4 3.2,5.9 6.8,5.9c2.6,0 4.5,-1 6,-2.6c2.7,1.6 5.5,2.6 7.7,2.7l0.2,-1.2zm-13.2,-17.1c1.4,0 1.9,1.1 1.9,2.4c0,1.7 -1.4,2.5 -2.7,3.1c-0.7,-1.2 -1.1,-2.3 -1.1,-3.4c0,-1 0.8,-2.1 1.9,-2.1zm3.7,14.8c-0.9,0.7 -2.3,1.1 -3.4,1.1c-2.4,0 -4.5,-1.8 -4.5,-4.6c0,-1.4 0.6,-2.3 1.5,-3.1c1.6,2.4 4,4.6 6.7,6.3c-0.1,0.1 -0.2,0.2 -0.3,0.3z"/>
   <path id="svg_12" d="m77.6,71c-0.2,-0.8 -0.6,-1.6 -1.5,-1.6c-0.7,0 -1.5,0.6 -2,1l0,6.4c0,2.1 0.9,1.8 2.6,2l0,0.8c-1.5,0 -3,-0.1 -4.4,-0.1c-1.1,0 -2.2,0 -3.3,0.1l0,-0.8l1.8,-0.3l0,-7.8c0,-0.9 -0.1,-1.7 -1.2,-1.7c-0.2,0 -0.4,0 -0.7,0l0,-0.8c0.9,-0.2 1.7,-0.4 2.6,-0.7c0.6,-0.2 1.3,-0.5 1.9,-0.5c0.9,0 0.8,1.1 0.8,1.7l0,0.3c0.8,-0.9 2.1,-2.1 3.4,-2.1c1.2,0 2.1,0.7 2.1,1.9c-0.1,1.3 -1.1,2.2 -2.1,2.2z"/>
   <path id="svg_13" d="m53.1,79.6c-1.2,0 -2.3,0 -3.5,0.1l0,-0.8l1.7,-0.3l0,-6.1c0,-1.4 0,-3.1 -1.9,-3.1c-0.9,0 -2.3,0.5 -3.1,0.9l0,7c0,1.3 0.5,1.4 1.7,1.6l0,0.8c-1.2,0 -2.4,-0.1 -3.5,-0.1c-1.1,0 -2.2,0 -3.3,0.1l0,-0.8l1.8,-0.3l0,-7.6c0,-1 0,-1.8 -1.2,-1.8c-0.2,0 -0.4,0 -0.7,0l0,-0.8c0.9,-0.2 1.7,-0.4 2.6,-0.7c0.8,-0.2 1.4,-0.5 1.9,-0.5c1,0 0.8,1.3 0.8,1.9c1.3,-0.8 3.5,-1.9 5.1,-1.9c1,0 1.8,0.2 2.5,1c0.8,0.9 0.8,2.5 0.8,3.7l0,5.3c0,1.7 0.9,1.4 2.2,1.6l0,0.8c-1.4,0 -2.7,0 -3.9,0z"/>
   <path id="svg_14" d="m28.2,71.7c-1.3,0 -1.8,0.3 -1.8,1.7c0,0 0,3.9 0,5.3c-1.9,0.8 -4.2,1.4 -7,1.4c-5.6,0 -9.3,-3.9 -9.3,-9.4c0,-5.4 4.3,-9.7 9.8,-9.7c2.7,0 4.9,0.7 6.4,1.2l0,4.7l-0.8,0c-0.3,-1.4 -0.8,-2.6 -1.7,-3.5c-0.9,-0.8 -2,-1.2 -3.5,-1.2c-4.8,0 -5.9,5.5 -5.9,8.7c0,3.3 1.2,8 5.4,8c2.3,0 2.9,-0.7 2.9,-3.1l0,-3.8l-2.3,-0.3l0,-0.9l8.1,0l0,0.9l-0.3,0z"/>
   <path id="svg_15" d="m88.8,79.8c-1.3,0 -2.2,-0.2 -2.6,-1.6c-0.9,1.3 -2.6,1.7 -3.8,1.7c-2.3,0 -4.4,-1 -4.4,-3.5c0,-4 5.2,-4.1 8.1,-4.1l0,-1.6c0,-1.5 -0.7,-2.1 -2.3,-2.1c-1,0 -2.2,0.3 -3.1,0.7l0,-1.5c1.3,-0.4 2.7,-0.7 4.3,-0.7c1.2,0 2.8,0.2 3.7,1.1c0.9,0.9 0.9,2 0.9,3.2l0,5.6c0,1 0.3,1.8 1.3,1.8c0.9,0 1.8,-0.1 2.6,-0.2l0,-14c0,-1 0,-1.8 -1.2,-1.8c-0.2,0 -0.4,0 -0.7,0l0,-0.8c0.9,-0.2 1.7,-0.4 2.6,-0.6c0.8,-0.2 1.4,-0.5 1.9,-0.5c1,0 0.8,1.2 0.8,1.9l0,14.4c0,1.3 0.8,1.4 2.8,1.6l0,0.8c-3.8,0 -7.3,0.2 -10.9,0.2zm-2.8,-6.3c-1.8,0 -4.4,0.3 -4.4,2.8c0,1.3 0.6,2.1 1.9,2.1c1.1,0 1.9,-0.8 2.3,-1.6c0.2,-0.7 0.3,-1.2 0.3,-1.9l-0.1,-1.4l0,0z"/>
   <path id="svg_16" d="m53.2,58.2c-1.3,0 -2.2,-0.2 -2.6,-1.6c-0.9,1.3 -2.6,1.7 -3.9,1.7c-2.3,0 -4.4,-1 -4.4,-3.5c0,-4 5.3,-4.1 8.2,-4.1l0,-1.6c0,-1.5 -0.7,-2.1 -2.3,-2.1c-1,0 -2.2,0.3 -3.1,0.7l0,-1.5c1.4,-0.4 2.7,-0.6 4.3,-0.6c1.1,0 2.8,0.2 3.7,1.1c0.9,0.9 0.9,2 0.9,3.3l0,5.5c0,1 0.3,1.8 1.3,1.8c0.8,0 1.7,-0.1 2.6,-0.2l0,-14c0,-1 0,-1.8 -1.2,-1.8c-0.2,0 -0.4,0 -0.7,0.1l0,-0.8c0.9,-0.2 1.7,-0.4 2.6,-0.7c0.8,-0.2 1.4,-0.5 1.9,-0.5c1,0 0.8,1.3 0.8,1.9l0,14.4c0,1.3 0.8,1.4 2.8,1.6l0,0.8c-3.8,0 -7.3,0.1 -10.9,0.1zm-2.8,-6.2c-1.8,0 -4.5,0.3 -4.5,2.8c0,1.3 0.6,2.1 1.9,2.1c1.1,0 1.9,-0.8 2.3,-1.7c0.2,-0.6 0.3,-1.2 0.3,-1.9l0,-1.3l0,0z"/>
   <path id="svg_17" d="m68.3,73.2l-8.2,0.1c0.1,3 1.3,5 4.6,5c0.9,0 1.9,-0.2 2.7,-0.4l0,1.1c-1.4,0.6 -2.6,0.9 -4.2,0.9c-3.8,0 -6.8,-2.5 -6.8,-6.4c0,-3.9 2.9,-6.3 6.7,-6.3c3,0 5.4,2.1 5.4,5.1c-0.1,0.3 -0.2,0.6 -0.2,0.9zm-5.4,-4.8c-1.9,0 -2.7,2.2 -2.8,3.9l3.3,-0.3c0.9,-0.1 1.4,-0.2 1.4,-1.2c0,-1.2 -0.7,-2.4 -1.9,-2.4z"/>
   <path id="svg_18" d="m43.4,46.8c-0.6,-0.4 -1.2,-0.8 -1.9,-0.8c-0.6,0 -0.8,0.6 -1,1c0.8,0.7 1.3,1.8 1.3,2.8c0,3 -2.4,4.7 -5.2,4.7c-0.6,0 -1.2,0 -1.7,-0.2c-0.3,0.4 -0.8,0.8 -1.2,0.9c0,0.6 0.7,0.6 1.2,0.6c1,0 1.9,-0.1 2.9,-0.1c2.1,0 4.6,0.7 4.6,3.2c0,3.6 -3.7,5.1 -6.8,5.1c-2.2,0 -5.6,-1 -5.6,-3.7c0,-1.2 1,-2 2,-2.5c-0.8,-0.5 -1.1,-1.5 -1.1,-2.4c0,-0.2 0,-0.3 0,-0.5c0.8,-0.1 2.4,-0.5 2.9,-1.2c-1.7,-0.7 -2.6,-2 -2.6,-3.8c0,-3.1 2.7,-4.6 5.5,-4.6c1,0 2.3,0.3 3.2,0.8c0.3,-1.3 1.3,-2.2 2.7,-2.2c0.5,0 1.7,0.2 1.7,0.9c-0.2,1 -0.5,1.6 -0.9,2zm-7.1,0.1c-1.5,0 -2.1,1.2 -2.1,2.8c0,1.8 0.5,3.6 2.3,3.6c1.5,0 2.1,-1.1 2.1,-2.7c0,-1.7 -0.5,-3.7 -2.3,-3.7zm1,11.7c-1.1,0 -1.6,0.1 -2.6,0.1c-0.7,0 -1.3,-0.1 -1.9,-0.2c-0.3,0.3 -0.7,0.9 -0.7,1.3c0,1.7 1.6,2.3 4,2.3c2.7,0 4.3,-0.9 4.3,-2.1c-0.1,-1.4 -2,-1.4 -3.1,-1.4z"/>
   <path id="svg_19" d="m29.9,51.8l-8.3,0.1c0.1,3 1.3,5 4.6,5c0.9,0 1.9,-0.2 2.7,-0.4l0,1c-1.4,0.7 -2.6,0.9 -4.2,0.9c-3.8,0 -6.8,-2.5 -6.8,-6.4c0,-3.9 2.9,-6.3 6.6,-6.3c3,0 5.4,2.1 5.4,5.1c0.1,0.4 0.1,0.7 0,1zm-5.4,-4.9c-1.9,0 -2.7,2.3 -2.8,3.9l3.3,-0.3c0.9,-0.1 1.4,-0.2 1.4,-1.2c0,-1.2 -0.7,-2.4 -1.9,-2.4z"/>
   <path id="svg_20" d="m40.9,73.2l-8.2,0.1c0.1,3 1.4,5 4.6,5c0.9,0 1.9,-0.2 2.6,-0.4l0,1.1c-1.4,0.6 -2.6,0.9 -4.2,0.9c-3.8,0 -6.8,-2.5 -6.8,-6.4c0,-3.9 2.9,-6.3 6.6,-6.3c3,0 5.4,2.1 5.4,5.1c0,0.3 0,0.6 0,0.9zm-5.5,-4.8c-1.9,0 -2.7,2.2 -2.7,3.9l3.3,-0.3c0.9,-0.1 1.4,-0.2 1.4,-1.2c-0.1,-1.2 -0.7,-2.4 -2,-2.4z"/>
   <path id="svg_21" d="m17.3,52.8l-0.9,0c-0.9,3.6 -2.1,4 -5.7,4c-2.3,0 -2.7,-0.2 -2.7,-1.8l0,-14.2l2.7,-0.4l0,-0.8l-9.2,0l0,0.8c2.2,0 2.7,0.5 2.7,2.2l0,14.2l-2.7,0.5l0,0.8l15.4,0l0.4,-5.3z"/>
  </g>
 </g>
</svg>